<svg xmlns="http://www.w3.org/2000/svg" xmlns:xlink="http://www.w3.org/1999/xlink" xmlns:inkscape="http://www.inkscape.org/namespaces/inkscape" version="1.1" width="612" height="792" viewBox="0 0 612 792">
<defs>
<path id="font_1_52" d="M.6069946 .5069885C.60598757 .6579895 .5049896 .7409973 .32099916 .7409973 .1459961 .7409973 .04499817 .6589966 .04499817 .5169983 .04499817 .4039917 .101989749 .34899903 .25 .32099916L.35198976 .30099488C.45199586 .28199769 .4889984 .2539978 .4889984 .19499207 .4889984 .13398743 .43299867 .09700012 .34199525 .09700012 .23999024 .09700012 .18299866 .13999939 .17799378 .21798706H.03199768C.040985109 .06199646 .147995-.023010254 .33399964-.023010254 .5219879-.023010254 .6329956 .06399536 .6329956 .21299744 .6329956 .32798768 .57499697 .3880005 .43998719 .4139862L.32598878 .43598939C.21899414 .45700074 .18798828 .47799684 .18798828 .5309906 .18798828 .58599856 .23599243 .62098696 .31399537 .62098696 .40899659 .62098696 .46199037 .58099368 .46699525 .5069885H.6069946Z"/>
<path id="font_1_74" d="M.20698548 .5399933H.066986087V0H.20698548V.5399933M.20698548 .72898867H.066986087V.60398867H.20698548V.72898867Z"/>
<path id="font_1_78" d="M.05999756 .5399933V0H.19999695V.32398988C.19999695 .3909912 .23599243 .42999269 .29599 .42999269 .34298707 .42999269 .37199403 .40299989 .37199403 .3600006V0H.5119934V.32398988C.5119934 .3899994 .5479889 .42999269 .60798647 .42999269 .6549988 .42999269 .6839905 .40299989 .6839905 .3600006V0H.82398989V.38198854C.82398989 .4869995 .7599945 .548996 .6519928 .548996 .58299258 .548996 .5359955 .5249939 .49398805 .46899415 .46798707 .519989 .4139862 .548996 .34700013 .548996 .2849884 .548996 .24499512 .5289917 .19898987 .47299195V.5399933H.05999756Z"/>
<path id="font_1_81" d="M.19799805 .5399933H.057998659V-.21800232H.19799805V.06399536C.23199463 .0039978029 .27999879-.024002076 .34799195-.024002076 .47799684-.024002076 .57398989 .09799194 .57398989 .2619934 .57398989 .33799745 .5519867 .4139862 .5159912 .46398927 .47999574 .5149994 .41299439 .548996 .34799195 .548996 .27999879 .548996 .23199463 .519989 .19799805 .45999146V.5399933M.31599427 .43199159C.3869934 .43199159 .43399049 .3639984 .43399049 .2599945 .43399049 .16099549 .38598634 .09298706 .31599427 .09298706 .24499512 .09298706 .19799805 .16099549 .19799805 .2619934 .19799805 .3639984 .24499512 .43199159 .31599427 .43199159Z"/>
<path id="font_1_77" d="M.20698548 .72898867H.066986087V0H.20698548V.72898867Z"/>
<path id="font_1_70" d="M.5239868 .22599793C.5249939 .23799134 .5249939 .24299622 .5249939 .25 .5249939 .3039856 .5169983 .35398866 .5039978 .3919983 .46798707 .48999024 .3809967 .548996 .27198792 .548996 .116989139 .548996 .021987915 .43699647 .021987915 .2559967 .021987915 .08299255 .115997318-.023010254 .2689972-.023010254 .3899994-.023010254 .48799134 .04499817 .5189972 .1519928H.3809967C.3639984 .10899353 .32499696 .083999637 .27398683 .083999637 .23399353 .083999637 .20199585 .100997928 .18199158 .1309967 .16899109 .15098572 .1639862 .1749878 .1619873 .22599793H.5239868M.1639862 .31900025C.17298889 .4019928 .20799256 .44198609 .269989 .44198609 .33399964 .44198609 .37199403 .39898683 .3789978 .31900025H.1639862Z"/>
<path id="font_1_1" d=""/>
<path id="font_1_67" d="M.05899048 .72898867V0H.19898987V.054992677C.23298645 .0019989014 .27999879-.023010254 .34799195-.023010254 .47698976-.023010254 .57499697 .099990848 .57499697 .2630005 .57499697 .33599855 .5529938 .4099884 .5169983 .46199037 .47999574 .5149994 .4139862 .548996 .34799195 .548996 .27999879 .548996 .23298645 .5239868 .19898987 .46998597V.72898867H.05899048M.31698609 .43199159C.38598634 .43199159 .43499757 .3619995 .43499757 .2619934 .43499757 .16299439 .3869934 .09399414 .31698609 .09399414 .24598694 .09399414 .19898987 .16099549 .19898987 .2649994 .19898987 .3639984 .24699402 .43199159 .31698609 .43199159Z"/>
<path id="font_1_80" d="M.30099488 .548996C.13598633 .548996 .034988405 .43998719 .034988405 .2630005 .034988405 .084991458 .13598633-.023010254 .3019867-.023010254 .46699525-.023010254 .56900027 .084991458 .56900027 .25898744 .56900027 .44198609 .46998597 .548996 .30099488 .548996M.3019867 .43598939C.3789978 .43598939 .42900086 .36698915 .42900086 .26098634 .42900086 .1599884 .3769989 .08999634 .3019867 .08999634 .22599793 .08999634 .1749878 .15899658 .1749878 .2630005 .1749878 .36698915 .22599793 .43598939 .3019867 .43598939Z"/>
<path id="font_1_66" d="M.5239868 .016998291C.5 .039993287 .49198915 .055999757 .49198915 .08299255V.3829956C.49198915 .49299623 .4169922 .548996 .2709961 .548996 .125 .548996 .04899597 .4869995 .039993287 .3619995H.1749878C.18199158 .41799928 .20498657 .43598939 .27398683 .43598939 .32798768 .43598939 .35499574 .41799928 .35499574 .38198854 .35499574 .3639984 .34599305 .34899903 .33099366 .33999635 .31199647 .32998658 .31199647 .32998658 .24299622 .31900025L.18699646 .30899049C.07998657 .29100038 .027999878 .23599243 .027999878 .13899231 .027999878 .041992189 .09298706-.023010254 .19198609-.023010254 .2519989-.023010254 .30599977 .0019989014 .35598756 .053985597 .35598756 .025985718 .35899354 .015991211 .37199403 0H.5239868V.016998291M.35499574 .21699524C.35499574 .13598633 .31498719 .08999634 .24398804 .08999634 .19699097 .08999634 .16799927 .114990238 .16799927 .15499878 .16799927 .19699097 .18998719 .21699524 .24798584 .22898865L.29599 .23799134C.33299256 .24499512 .33898927 .24699402 .35499574 .25498963V.21699524Z"/>
<path id="font_1_85" d="M.30099488 .5289917H.22299195V.673996H.08299255V.5289917H.01399231V.43598939H.08299255V.10398865C.08299255 .018997193 .12799073-.023010254 .21998596-.023010254 .2519989-.023010254 .2749939-.020004273 .30099488-.012008667V.085998538C.2869873 .083999637 .27999879 .08299255 .2689972 .08299255 .23199463 .08299255 .22299195 .09399414 .22299195 .14199829V.43598939H.30099488V.5289917Z"/>
<path id="font_2_37" d="M.015991211 0H.2999878C.41600038 0 .5209961 .032989503 .58299258 .08898926 .647995 .147995 .68499758 .23699951 .68499758 .33399964 .68499758 .42399598 .6559906 .5019989 .59999087 .5569916 .5319977 .6259918 .4229889 .6619873 .28599549 .6619873H.015991211V.6429901C.09498596 .6359863 .102996829 .6279907 .10398865 .5529938V.10899353C.102996829 .035995485 .09098816 .023986817 .015991211 .018997193V0M.20599365 .58599856C.20599365 .61698916 .21598816 .625 .2579956 .625 .34498597 .625 .40899659 .60899356 .45700074 .57499697 .5349884 .5209961 .57598879 .43499757 .57598879 .32699586 .57598879 .20899964 .5349884 .125 .45399476 .07798767 .40299989 .04899597 .34498597 .036987306 .2579956 .036987306 .21798706 .036987306 .20599365 .04598999 .20599365 .07798767V.58599856Z"/>
<path id="font_2_70" d="M.4079895 .1639862C.3600006 .08799744 .31698609 .05899048 .25299073 .05899048 .19599915 .05899048 .15299988 .08799744 .12399292 .14498902 .10598755 .18299866 .09899902 .21499634 .09700012 .2769928H.40499879C.39698792 .34199525 .3869934 .37098695 .3619995 .40299989 .33198548 .43899537 .28599549 .45999146 .23399353 .45999146 .18399048 .45999146 .13699341 .44198609 .09899902 .4079895 .051986696 .36698915 .024993897 .29599 .024993897 .21398926 .024993897 .07598877 .09700012-.010009766 .21199036-.010009766 .30699159-.010009766 .38198854 .04899597 .42399598 .15699768L.4079895 .1639862M.09899902 .30899049C.10998535 .3869934 .14399719 .42399598 .20498657 .42399598 .2659912 .42399598 .2899933 .3959961 .30299378 .30899049H.09899902Z"/>
<path id="font_2_84" d="M.31498719 .31399537 .31098939 .45098878H.2999878C.29499818 .44299317 .2899933 .43998719 .28399659 .43998719 .27799989 .43998719 .2679901 .44198609 .25698854 .44699098 .23399353 .45498658 .21099854 .45999146 .18699646 .45999146 .10798645 .45999146 .050994874 .4079895 .050994874 .33599855 .050994874 .27999879 .08299255 .23999024 .16799927 .19198609L.22599793 .15899658C.26098634 .13899231 .27799989 .114990238 .27799989 .083999637 .27799989 .039993287 .24598694 .011993408 .19499207 .011993408 .12599182 .011993408 .09098816 .049987794 .067993167 .1519928H.051986696V-.0040130617H.06498718C.07199097 .005996704 .07598877 .0079956059 .08799744 .0079956059 .09899902 .0079956059 .11099243 .005996704 .13398743 0 .16099549-.006011963 .18699646-.010009766 .20698548-.010009766 .2849884-.010009766 .34799195 .04798889 .34799195 .117996219 .34799195 .16799927 .32398988 .20098877 .2639923 .23699951L.1559906 .30099488C.12799073 .31799317 .11299133 .34199525 .11299133 .36898805 .11299133 .4099884 .14399719 .43699647 .18998719 .43699647 .24699402 .43699647 .2769928 .4039917 .2999878 .31399537H.31498719Z"/>
<path id="font_2_74" d="M.015991211 0H.25299073V.01499939C.18699646 .019989014 .17999268 .0289917 .1789856 .101989749V.45700074L.1749878 .45999146 .019989014 .40499879V.3899994L.027999878 .3909912C.039993287 .3929901 .051986696 .3939972 .06199646 .3939972 .085998538 .3939972 .09498596 .37799073 .09498596 .33399964V.101989749C.09298706 .027999878 .083999637 .017990113 .015991211 .01499939V0M.12799073 .68299868C.100997928 .68299868 .07798767 .6599884 .07798767 .6319885 .07798767 .6029968 .099990848 .58099368 .12799073 .58099368 .1579895 .58099368 .17999268 .6029968 .17999268 .6319885 .17999268 .6609955 .15699768 .68299868 .12799073 .68299868Z"/>
<path id="font_2_72" d="M.46998597 .3880005V.4269867H.3929901C.37199403 .4269867 .35798646 .42999269 .33799745 .43699647L.31599427 .44499208C.2899933 .45498658 .2619934 .45999146 .23599243 .45999146 .14299011 .45999146 .068984989 .3889923 .068984989 .29699708 .068984989 .23399353 .09498596 .19599915 .1619873 .16299439L.13598633 .13899231C.114990238 .11898804 .102996829 .10798645 .099990848 .10398865 .07899475 .08198547 .07299805 .070999149 .07299805 .053985597 .07299805 .03199768 .083999637 .020996094 .12599182 .0009918213 .053985597-.05101013 .027999878-.08401489 .027999878-.1210022 .027999878-.17401123 .10499573-.21800232 .20098877-.21800232 .27598573-.21800232 .35398866-.19200135 .4059906-.15000916 .44400025-.119003299 .46099855-.087005618 .46099855-.04901123 .46099855 .0129852299 .4139862 .053985597 .33999635 .057998659L.21099854 .06399536C.15699768 .06599426 .1329956 .07499695 .1329956 .09098816 .1329956 .11099243 .1659851 .1459961 .19299317 .1539917 .22898865 .15098572 .24798584 .14898682 .25 .14898682 .2869873 .14898682 .32699586 .1639862 .35798646 .19099427 .3909912 .21899414 .4059906 .2539978 .4059906 .3039856 .4059906 .33299256 .40098573 .35598756 .3869934 .3880005H.46998597M.14698792-.0020141602C.18099976-.009002686 .25898744-.015014648 .30999757-.015014648 .3999939-.015014648 .43299867-.028015137 .43299867-.06401062 .43299867-.12200928 .35699464-.16101074 .24398804-.16101074 .15499878-.16101074 .09799194-.13200379 .09799194-.088012699 .09799194-.06500244 .10699463-.05000305 .14698792-.0020141602M.1519928 .33799745C.1519928 .39698792 .17999268 .43199159 .22599793 .43199159 .25698854 .43199159 .2829895 .4149933 .29899598 .3849945 .31799317 .34999085 .32899476 .30499269 .32899476 .2649994 .32899476 .20899964 .30099488 .17399597 .25498963 .17399597 .19299317 .17399597 .1519928 .23899842 .1519928 .33499146V.33799745Z"/>
<path id="font_2_79" d="M.017990113 0H.22999573V.01499939C.17999268 .017990113 .1639862 .0309906 .1639862 .066986087V.34799195C.21199036 .3929901 .23399353 .40499879 .2669983 .40499879 .31599427 .40499879 .33999635 .37399293 .33999635 .30799867V.09899902C.33799745 .033996583 .32598878 .017990113 .2769928 .01499939V0H.4850006V.01499939C.43598939 .019989014 .4249878 .03199768 .42399598 .08099365V.30999757C.42399598 .4039917 .37998963 .45999146 .30599977 .45999146 .2599945 .45999146 .22898865 .44299317 .16099549 .3789978V.45799256L.1539917 .45999146C.101989749 .44099427 .067993167 .42999269 .015991211 .4149933V.397995C.022994996 .40098573 .03199768 .4019928 .042999269 .4019928 .070999149 .4019928 .07998657 .3869934 .07998657 .33799745V.08999634C.07899475 .0309906 .067993167 .017990113 .017990113 .01499939V0Z"/>
<path id="font_2_27" d="M.13598633 .45899964C.10598755 .45899964 .08099365 .43399049 .08099365 .4019928 .08099365 .37298585 .10598755 .34799195 .1349945 .34799195 .1659851 .34799195 .19198609 .37199403 .19198609 .4019928 .19198609 .43299867 .1659851 .45899964 .13598633 .45899964M.13598633 .099990848C.10598755 .099990848 .08099365 .07499695 .08099365 .042999269 .08099365 .01399231 .10598755-.011001587 .1349945-.011001587 .1659851-.011001587 .19198609 .0129852299 .19198609 .042999269 .19198609 .07398987 .1659851 .099990848 .13598633 .099990848Z"/>
<path id="font_2_1" d=""/>
<path id="font_2_53" d="M.45199586 .018997193C.36999513 .022994996 .35699464 .034988405 .35598756 .10899353V.6199951H.4099884C.526001 .6179962 .5469971 .6009979 .56900027 .49198915H.59298709L.58699038 .6619873H.022994996L.016998291 .49198915H.040985109C.06399536 .6009979 .084991458 .6179962 .19999695 .6199951H.2539978V.11999512C.25299073 .033996583 .24398804 .023986817 .1599884 .018997193V0H.45199586V.018997193Z"/>
<path id="font_2_83" d="M.004989624 0H.24499512V.01499939C.17799378 .016998291 .1619873 .0309906 .1599884 .08999634V.31498719C.1599884 .34700013 .20199585 .39698792 .22999573 .39698792 .23599243 .39698792 .24499512 .3919983 .2559967 .38198854 .2709961 .36698915 .2829895 .3619995 .29599 .3619995 .31999208 .3619995 .33499146 .3789978 .33499146 .40699769 .33499146 .43998719 .31399537 .45999146 .27999879 .45999146 .23799134 .45999146 .20999146 .43798829 .1599884 .3659973V.45799256L.15499878 .45999146C.09899902 .43798829 .06298828 .42399598 .0069885256 .4059906V.3899994C.020996094 .3929901 .02999878 .3939972 .041992189 .3939972 .066986087 .3939972 .07598877 .37799073 .07598877 .33399964V.083999637C.07398987 .03199768 .067993167 .025985718 .004989624 .01499939V0Z"/>
<path id="font_2_66" d="M.44198609 .06599426C.4249878 .051986696 .41299439 .04699707 .397995 .04699707 .375 .04699707 .36799623 .06098938 .36799623 .10499573V.2999878C.36799623 .35198976 .36299134 .3809967 .34799195 .40499879 .32598878 .44099427 .2829895 .45999146 .22399903 .45999146 .12998963 .45999146 .055999757 .41099549 .055999757 .34799195 .055999757 .32499696 .07499695 .30499269 .09899902 .30499269 .12298584 .30499269 .14399719 .32499696 .14399719 .34700013 .14399719 .35099793 .14299011 .35598756 .14199829 .36299134 .13999939 .37199403 .13899231 .37998963 .13899231 .3869934 .13899231 .4139862 .17098999 .43598939 .21099854 .43598939 .2599945 .43598939 .2869873 .40699769 .2869873 .35299684V.2919922C.13398743 .23098755 .115997318 .22200012 .07299805 .18399048 .050994874 .1639862 .036987306 .12998963 .036987306 .09700012 .036987306 .033996583 .08099365-.010009766 .14199829-.010009766 .18598938-.010009766 .22698975 .010986328 .28799439 .06298828 .29299928 .009994507 .31098939-.010009766 .35198976-.010009766 .38598634-.010009766 .40699769 .0019989014 .44198609 .039993287V.06599426M.2869873 .12298584C.2869873 .09298706 .28199769 .08198547 .26098634 .069992069 .23599243 .055999757 .20899964 .04798889 .18798828 .04798889 .15299988 .04798889 .125 .08198547 .125 .125V.1289978C.12599182 .18899536 .16999817 .22698975 .2869873 .2679901V.12298584Z"/>
<path id="font_2_69" d="M.4909973 .057998659C.47799684 .056991579 .47200013 .056991579 .46798707 .056991579 .43299867 .056991579 .42399598 .067993167 .42399598 .11399841V.68099978L.4189911 .68299868C.37199403 .6669922 .33799745 .6559906 .27198792 .6389923V.6230011C.27999879 .6239929 .2849884 .6239929 .2939911 .6239929 .33099366 .6239929 .33999635 .6139984 .33999635 .57299807V.4169922C.3019867 .44898988 .2749939 .45999146 .23498535 .45999146 .11999512 .45999146 .026992798 .34700013 .026992798 .20498657 .026992798 .07699585 .100997928-.010009766 .21199036-.010009766 .2679901-.010009766 .30599977 .009994507 .33999635 .056991579V-.007003784L.34399415-.010009766 .4909973 .041992189V.057998659M.33999635 .101989749C.33999635 .09498596 .33299256 .08299255 .32299806 .07199097 .30599977 .051986696 .27999879 .041992189 .25099183 .041992189 .16699219 .041992189 .11299133 .12199402 .11299133 .24598694 .11299133 .35798646 .1619873 .43199159 .23799134 .43199159 .2919922 .43199159 .33999635 .3849945 .33999635 .33198548V.101989749Z"/>
<path id="font_2_85" d="M.25498963 .44999696H.1539917V.56599429C.1539917 .57598879 .1519928 .57899478 .14698792 .57899478 .08898926 .49499513 .05899048 .46099855 .02999878 .44400025 .018997193 .43699647 .0129852299 .43099977 .0129852299 .4249878 .0129852299 .42199708 .01399231 .41999818 .016998291 .41799928H.069992069V.116989139C.069992069 .032989503 .099990848-.010009766 .15899658-.010009766 .20799256-.010009766 .24598694 .01399231 .2789917 .06599426L.2659912 .07699585C.24398804 .050994874 .22799683 .041992189 .20599365 .041992189 .16899109 .041992189 .1539917 .068984989 .1539917 .13198853V.41799928H.25498963V.44999696Z"/>
<path id="font_2_80" d="M.25 .45999146C.11898804 .45999146 .0289917 .3639984 .0289917 .22599793 .0289917 .08999634 .12199402-.010009766 .24798584-.010009766 .37399293-.010009766 .46998597 .09498596 .46998597 .23399353 .46998597 .3659973 .37799073 .45999146 .25 .45999146M.23699951 .43199159C.32099916 .43199159 .37998963 .33599855 .37998963 .19898987 .37998963 .084991458 .33499146 .017990113 .2599945 .017990113 .22099304 .017990113 .18399048 .041992189 .16299439 .08198547 .1349945 .13398743 .11898804 .20399475 .11898804 .2749939 .11898804 .36999513 .16499329 .43199159 .23699951 .43199159Z"/>
<path id="font_2_77" d="M.020996094 0H.25698854V.01499939C.19400025 .017990113 .18299866 .027999878 .18199158 .083999637V.68099978L.17799378 .68299868C.1269989 .6669922 .08999634 .6559906 .018997193 .6389923V.6230011H.024993897C.035995485 .6239929 .04798889 .625 .055999757 .625 .08799744 .625 .09799194 .61099246 .09799194 .56399539V.08699036C.09700012 .032989503 .08299255 .018997193 .020996094 .01499939V0Z"/>
<path id="font_2_78" d="M.015991211 0H.23799134V.01499939C.18699646 .015991211 .17098999 .026992798 .16999817 .066986087V.34899903C.16999817 .35099793 .17799378 .36099244 .18499756 .36799623 .20999146 .3909912 .25299073 .4079895 .28799439 .4079895 .33198548 .4079895 .35398866 .37298585 .35398866 .30299378V.085998538C.35198976 .0289917 .34199525 .017990113 .28599549 .01499939V0H.5099945V.01499939C.45399476 .01499939 .43998719 .0309906 .43798829 .09498596V.34700013C.46798707 .3899994 .5 .4079895 .5469971 .4079895 .60398867 .4079895 .621994 .3809967 .621994 .2979889V.08699036C.6199951 .027999878 .6139984 .020996094 .55599978 .01499939V0H.7749939V.01499939L.7489929 .016998291C.71699526 .021987915 .70599368 .036987306 .70599368 .07598877V.28199769C.70599368 .3999939 .6669922 .45999146 .58999636 .45999146 .5319977 .45999146 .48098756 .43399049 .4269867 .37599183 .40899659 .43299867 .375 .45999146 .32099916 .45999146 .27598573 .45999146 .24899292 .44699098 .1659851 .3829956V.45799256L.15899658 .45999146C.10598755 .44099427 .07199097 .42999269 .018997193 .4149933V.397995C.0309906 .40098573 .039993287 .4019928 .050994874 .4019928 .07699585 .4019928 .085998538 .38598634 .085998538 .33799745V.084991458C.083999637 .0289917 .070999149 .01499939 .015991211 .01499939V0Z"/>
<path id="font_2_57" d="M.69599917 .6619873H.45799256V.6429901C.5119934 .6409912 .5279999 .6339874 .5279999 .61099246 .5279999 .59599307 .5179901 .5779877 .48799134 .5419922L.375 .4039917 .33299256 .46299745C.27198792 .548996 .24798584 .59098818 .24798584 .61299136 .24798584 .6329956 .2630005 .6409912 .29599 .6419983L.32398988 .6429901V.6619873H.021987915V.6429901C.08699036 .6399994 .10499573 .625 .20298767 .48599244L.31199647 .32598878 .15499878 .1329956C.06599426 .026992798 .06098938 .022994996 .009994507 .018997193V0H.24299622V.018997193C.18399048 .022994996 .16699219 .0309906 .16699219 .053985597 .16699219 .068984989 .18199158 .09399414 .21899414 .13999939L.33799745 .28799439 .43299867 .147995C.46699525 .09700012 .48399354 .06498718 .48399354 .049987794 .48399354 .03199768 .46798707 .021987915 .43399049 .020996094 .42999269 .020996094 .4189911 .019989014 .40699769 .018997193V0H.70399478V.018997193C.651001 .024993897 .6359863 .034988405 .59298709 .09298706L.40098573 .36698915 .5469971 .548996C.6119995 .6269989 .6319885 .6389923 .69599917 .6429901V.6619873Z"/>
<path id="font_2_87" d="M.47698976 .44999696H.33799745V.43499757C.36999513 .43199159 .3849945 .42199708 .3849945 .40299989 .3849945 .3929901 .3829956 .3829956 .3789978 .37298585L.27999879 .11399841 .17799378 .36999513C.17199707 .38398744 .16899109 .397995 .16899109 .40699769 .16899109 .4249878 .17999268 .43199159 .21499634 .43499757V.44999696H.018997193V.43499757C.056991579 .43299867 .06399536 .4229889 .10998535 .31999208L.22999573 .032989503C.23199463 .026992798 .23498535 .019989014 .23799134 .011993408 .24099732 .0039978029 .24398804-.0030059815 .24699402-.008010864 .24899292-.012008667 .25299073-.014007568 .2559967-.014007568 .2619934-.014007568 .2689972-.0010070801 .28399659 .035995485L.4119873 .35699464C.44099427 .4249878 .44699098 .43199159 .47698976 .43499757V.44999696Z"/>
<path id="font_2_39" d="M.47898866 .23098755V.46299745H.45599366C.44499208 .38398744 .42799378 .36999513 .34599305 .36799623H.20098877V.58999636C.20199585 .6199951 .20498657 .6230011 .23298645 .6239929H.36898805C.4850006 .621994 .5049896 .60798647 .5209961 .5189972H.54599L.54299929 .6619873H.011993408V.6429901C.084991458 .6380005 .09700012 .625 .09899902 .5529938V.11999512C.09799194 .034988405 .08799744 .023986817 .011993408 .018997193V0H.2919922V.018997193C.21598816 .021987915 .20199585 .035995485 .20098877 .10899353V.32699586H.34599305C.42799378 .32598878 .44400025 .31199647 .45599366 .23098755H.47898866Z"/>
<path id="font_2_86" d="M.47898866 .049987794H.47399903C.4249878 .051986696 .41799928 .05999756 .4169922 .10699463V.44999696H.25898744V.43299867C.32099916 .42999269 .33299256 .41999818 .33299256 .36999513V.1349945C.33299256 .10699463 .32798768 .09298706 .31399537 .08198547 .2869873 .05999756 .2559967 .04798889 .22599793 .04798889 .18699646 .04798889 .15499878 .08198547 .15499878 .12399292V.44999696H.008987427V.43598939C.055999757 .43399049 .069992069 .41999818 .070999149 .37199403V.11999512C.070999149 .040985109 .11898804-.010009766 .19198609-.010009766 .22898865-.010009766 .2679901 .005996704 .29499818 .032989503L.33799745 .07598877V-.007003784L.34199525-.009002686C.3919983 .010986328 .42799378 .021987915 .47898866 .035995485V.049987794Z"/>
<path id="font_2_68" d="M.397995 .1559906C.34999085 .085998538 .31399537 .06199646 .25698854 .06199646 .16499329 .06199646 .101989749 .14199829 .101989749 .25698854 .101989749 .36099244 .15699768 .43099977 .23799134 .43099977 .27398683 .43099977 .2869873 .42099 .29699708 .3829956L.30299378 .36099244C.31098939 .33198548 .32899476 .31498719 .35099793 .31498719 .3769989 .31498719 .397995 .33399964 .397995 .35699464 .397995 .41299439 .32798768 .45999146 .24398804 .45999146 .19499207 .45999146 .14399719 .43998719 .102996829 .4039917 .052993776 .3600006 .024993897 .2919922 .024993897 .21199036 .024993897 .08299255 .10398865-.010009766 .21499634-.010009766 .2599945-.010009766 .2999878 .005996704 .33599855 .036987306 .36299134 .05999756 .38198854 .08799744 .4119873 .14698792L.397995 .1559906Z"/>
<path id="font_2_73" d="M.4869995 .01499939C.43299867 .023986817 .42799378 .0309906 .4269867 .101989749V.30099488C.4269867 .4059906 .38598634 .45999146 .3039856 .45999146 .24499512 .45999146 .20298767 .43598939 .15699768 .37599183V.6799927L.1519928 .68299868C.116989139 .67099 .09199524 .6629944 .036987306 .6469879L.009994507 .6389923V.6230011C.01399231 .6239929 .015991211 .6239929 .021987915 .6239929 .06498718 .6239929 .07299805 .6159973 .07299805 .57299807V.101989749C.070999149 .02999878 .06599426 .021987915 .008987427 .01499939V0H.22499085V.01499939C.16699219 .019989014 .15899658 .0309906 .15699768 .101989749V.34298707C.19898987 .3889923 .22898865 .4059906 .2689972 .4059906 .31799317 .4059906 .34298707 .36999513 .34298707 .2999878V.101989749C.34098817 .0309906 .33198548 .019989014 .2749939 .01499939V0H.4869995V.01499939Z"/>
<path id="font_2_14" d="M.038986207 .25698854V.19400025H.2849884V.25698854H.038986207Z"/>
<path id="font_2_36" d="M.6199951 .45098878 .61099246 .6759949H.58999636C.58399966 .6549988 .56799319 .6429901 .5479889 .6429901 .5389862 .6429901 .5239868 .6459961 .5089874 .651001 .45999146 .66799929 .4099884 .6759949 .36299134 .6759949 .2809906 .6759949 .19799805 .644989 .13598633 .58999636 .06599426 .5279999 .027999878 .43598939 .027999878 .32598878 .027999878 .12199402 .16099549-.014007568 .3600006-.014007568 .47299195-.014007568 .57299807 .03199768 .6329956 .11299133L.61499026 .1309967C.5419922 .05999756 .47499085 .02999878 .3919983 .02999878 .32899476 .02999878 .272995 .049987794 .22999573 .08799744 .1749878 .13699341 .14399719 .22698975 .14399719 .33898927 .14399719 .519989 .23699951 .6359863 .38198854 .6359863 .43899537 .6359863 .4909973 .61499026 .5309906 .57598879 .5629883 .5439911 .5779877 .5159912 .5970001 .45098878H.6199951Z"/>
<path id="font_2_81" d="M.004989624-.2170105H.24699402V-.19900513C.17199707-.1980133 .1599884-.18800354 .15899658-.12400818V.032989503C.19499207 0 .21798706-.010009766 .2599945-.010009766 .3789978-.010009766 .46998597 .101989749 .46998597 .24699402 .46998597 .37098695 .3999939 .45999146 .30299378 .45999146 .24699402 .45999146 .20298767 .43598939 .15899658 .3809967V.45799256L.15299988 .45999146C.09899902 .43899537 .06399536 .42599488 .008987427 .40899659V.3929901C.017990113 .3939972 .023986817 .3939972 .033996583 .3939972 .067993167 .3939972 .07499695 .38398744 .07499695 .33699037V-.13101197C.07499695-.18400574 .06399536-.1940155 .004989624-.2000122V-.2170105M.15899658 .33399964C.15899658 .3639984 .21499634 .3999939 .26098634 .3999939 .33499146 .3999939 .38398744 .32398988 .38398744 .20698548 .38398744 .09700012 .33499146 .021987915 .2630005 .021987915 .21598816 .021987915 .15899658 .057998659 .15899658 .08799744V.33399964Z"/>
<path id="font_2_90" d="M.47499085 .44999696H.33999635V.43499757C.37199403 .43499757 .3880005 .42599488 .3880005 .4099884 .3880005 .4059906 .3869934 .3999939 .38398744 .3929901L.2869873 .116989139 .17199707 .36999513C.1659851 .38398744 .1619873 .397995 .1619873 .4079895 .1619873 .42599488 .1769867 .43299867 .21998596 .43499757V.44999696H.01399231V.43598939C.039993287 .43199159 .056991579 .42099 .06498718 .4039917L.1789856 .1579895C.19099427 .1309967 .19198609 .12998963 .19699097 .11999512 .22499085 .069992069 .24099732 .032989503 .24099732 .017990113 .24099732 .0019989014 .21798706-.059005739 .20098877-.0900116 .18598938-.11500549 .16499329-.13400269 .15098572-.13400269 .14498902-.13400269 .13598633-.13200379 .125-.12701416 .10699463-.120010379 .08898926-.11601257 .07299805-.11601257 .04899597-.11601257 .02999878-.13500977 .02999878-.16000366 .02999878-.19300843 .06098938-.21800232 .10398865-.21800232 .17199707-.21800232 .21798706-.16300965 .272995-.018005372L.4269867 .3899994C.43998719 .42199708 .45098878 .43199159 .47499085 .43499757V.44999696Z"/>
<path id="font_2_19" d="M.47499085 .13699341 .46199037 .14199829C.4249878 .083999637 .4139862 .07699585 .36698915 .07598877H.12799073L.29599 .2519989C.3849945 .34498597 .42399598 .42099 .42399598 .49899293 .42399598 .598999 .34298707 .6759949 .23899842 .6759949 .18399048 .6759949 .13198853 .6539917 .09498596 .6139984 .06298828 .5799866 .04798889 .5479889 .0309906 .47698976L.051986696 .47200013C.09199524 .56999209 .1269989 .60198977 .19699097 .60198977 .28199769 .60198977 .33799745 .54499819 .33799745 .46099855 .33799745 .38198854 .2919922 .2899933 .20799256 .20098877L.02999878 .011993408V0H.41999818L.47499085 .13699341Z"/>
<path id="font_2_17" d="M.2539978 .6759949C.19898987 .6759949 .15699768 .6599884 .11999512 .6239929 .06199646 .56799319 .023986817 .45298768 .023986817 .33599855 .023986817 .22599793 .056991579 .10998535 .10398865 .053985597 .14099121 .009994507 .19198609-.014007568 .25-.014007568 .30099488-.014007568 .34399415 .0029907227 .37998963 .037994386 .43798829 .09298706 .47599793 .20899964 .47599793 .32998658 .47599793 .5349884 .3849945 .6759949 .2539978 .6759949M.25099183 .6499939C.33499146 .6499939 .37998963 .5369873 .37998963 .32798768 .37998963 .11898804 .33599855 .011993408 .25 .011993408 .1639862 .011993408 .11999512 .11898804 .11999512 .32699586 .11999512 .5399933 .16499329 .6499939 .25099183 .6499939Z"/>
<path id="font_2_18" d="M.117996219 0H.3939972V.01499939C.31698609 .01499939 .2999878 .025985718 .29899598 .07398987V.673996L.29100038 .6759949 .11099243 .58499148V.57099917C.1499939 .58599856 .17399597 .59298709 .18299866 .59298709 .20399475 .59298709 .21299744 .5779877 .21299744 .54599V.09298706C.21099854 .02999878 .19400025 .015991211 .117996219 .01499939V0Z"/>
<path id="font_2_45" d="M.2939911 .6619873H.011993408V.6429901C.084991458 .6380005 .09700012 .625 .09899902 .5529938V.10899353C.09700012 .036987306 .083999637 .022994996 .011993408 .018997193V0H.5499878L.59799197 .17399597H.57299807C.526001 .068984989 .48298646 .042999269 .35398866 .038986207H.2869873C.20999146 .040985109 .20199585 .04399109 .20098877 .07998657V.5529938C.20298767 .6259918 .21598816 .6389923 .2939911 .6429901V.6619873Z"/>
<path id="font_2_67" d="M.15299988 .68099978 .147995 .68299868C.10699463 .6689911 .07998657 .6599884 .03199768 .6469879L.0029907227 .6389923V.6230011C.008987427 .6239929 .011993408 .6239929 .019989014 .6239929 .05999756 .6239929 .068984989 .61499026 .068984989 .57299807V.053985597C.068984989 .022994996 .15299988-.010009766 .23399353-.010009766 .3659973-.010009766 .46798707 .099990848 .46798707 .24299622 .46798707 .36698915 .3919983 .45999146 .2919922 .45999146 .23098755 .45999146 .17298889 .4249878 .15299988 .375V.68099978M.15299988 .32199098C.15299988 .36099244 .19999695 .39698792 .2519989 .39698792 .27999879 .39698792 .30499269 .3869934 .32598878 .36799623 .35798646 .33699037 .37998963 .2689972 .37998963 .19699097 .37998963 .085998538 .33198548 .021987915 .25 .021987915 .19799805 .021987915 .15299988 .04399109 .15299988 .069992069V.32199098Z"/>
<path id="font_2_49" d="M.015991211 .6429901C.08999634 .6349945 .09899902 .6259918 .099990848 .5529938V.11999512C.09899902 .034988405 .09199524 .025985718 .015991211 .018997193V0H.29599V.018997193C.21699524 .020996094 .20298767 .034988405 .20199585 .10899353V.29100038C.22799683 .2889862 .24499512 .28799439 .2709961 .28799439 .34999085 .28799439 .40299989 .2979889 .44599916 .32199098 .5059967 .35398866 .5419922 .4149933 .5419922 .48098756 .5419922 .522995 .5279999 .5609894 .5009918 .58999636 .46099855 .6339874 .37399293 .6619873 .27999879 .6619873H.015991211V.6429901M.20199585 .59098818C.20199585 .6179962 .20899964 .625 .23599243 .625 .37098695 .625 .43299867 .5779877 .43299867 .47499085 .43299867 .37799073 .37399293 .32798768 .25898744 .32798768 .23899842 .32798768 .22499085 .32899476 .20199585 .33099366V.59098818Z"/>
<path id="font_2_34" d="M.70599368 .018997193C.6609955 .021987915 .651001 .03199768 .6159973 .10598755L.36698915 .673996H.34700013L.13899231 .18299866C.07499695 .036987306 .06298828 .020996094 .01499939 .018997193V0H.21299744V.018997193C.16499329 .018997193 .14498902 .0309906 .14498902 .05999756 .14498902 .07199097 .147995 .085998538 .15299988 .09899902L.19898987 .21598816H.46099855L.5019989 .11999512C.5139923 .09298706 .5209961 .066986087 .5209961 .052993776 .5209961 .027999878 .5039978 .019989014 .45098878 .018997193V0H.70599368V.018997193M.21598816 .25698854 .33099366 .5319977 .44699098 .25698854H.21598816Z"/>
<path id="font_2_21" d="M.47200013 .23098755H.36999513V.6759949H.32598878L.011993408 .23098755V.16699219H.29299928V0H.36999513V.16699219H.47200013V.23098755M.2919922 .23098755H.051986696L.2919922 .57398989V.23098755Z"/>
<path id="font_2_91" d="M.41799928 .1349945 .3999939 .13899231C.38198854 .04499817 .36799623 .032989503 .27198792 .02999878H.13398743L.40299989 .43499757V.44999696H.055999757L.052993776 .33198548H.070999149C.07899475 .40299989 .09298706 .41799928 .15499878 .41999818H.29299928L.026992798 .01499939V0H.4039917L.41799928 .1349945Z"/>
<path id="font_2_71" d="M.30899049 .44999696H.18598938V.56599429C.18598938 .625 .20498657 .6549988 .24299622 .6549988 .2649994 .6549988 .27799989 .644989 .29599 .6159973 .31199647 .58999636 .32398988 .5799866 .34098817 .5799866 .36499024 .5799866 .3829956 .59799197 .3829956 .62098696 .3829956 .6569977 .33898927 .68299868 .2789917 .68299868 .21598816 .68299868 .1639862 .6559906 .13798523 .61099246 .11199951 .56599429 .10398865 .5299988 .102996829 .44999696H.020996094V.41799928H.102996829V.10398865C.100997928 .0289917 .09098816 .017990113 .019989014 .01499939V0H.27999879V.01499939C.19799805 .017990113 .18699646 .0289917 .18699646 .10398865V.41799928H.30899049V.44999696Z"/>
<path id="font_2_20" d="M.15299988 .32998658C.21199036 .32998658 .23498535 .32798768 .2579956 .31900025 .32099916 .29599 .35899354 .23999024 .35899354 .17098999 .35899354 .085998538 .30299378 .021987915 .22898865 .021987915 .20098877 .021987915 .18099976 .0289917 .14399719 .052993776 .114990238 .070999149 .09799194 .07798767 .08099365 .07798767 .057998659 .07798767 .042999269 .06399536 .042999269 .042999269 .042999269 .0079956059 .085998538-.014007568 .1559906-.014007568 .23199463-.014007568 .31098939 .011993408 .35899354 .052993776 .4059906 .09399414 .43099977 .1519928 .43099977 .21899414 .43099977 .2709961 .4149933 .31698609 .3869934 .34799195 .3659973 .36999513 .34700013 .38198854 .3039856 .40098573 .37199403 .44799806 .39698792 .4850006 .39698792 .5389862 .39698792 .62098696 .33399964 .6759949 .24099732 .6759949 .19099427 .6759949 .14698792 .6589966 .11099243 .6269989 .08099365 .598999 .06599426 .57398989 .04499817 .5139923L.05999756 .5099945C.099990848 .58399966 .14498902 .6159973 .20799256 .6159973 .27398683 .6159973 .31799317 .57299807 .31799317 .5089874 .31799317 .47299195 .30299378 .43798829 .27799989 .4119873 .24798584 .38198854 .21998596 .36698915 .1519928 .34298707L.15299988 .32998658Z"/>
</defs>
<use data-text="S" xlink:href="#font_1_52" transform="matrix(24,0,0,-24,230.009,10.406982)"/>
<use data-text="i" xlink:href="#font_1_74" transform="matrix(24,0,0,-24,246.017,10.406982)"/>
<use data-text="m" xlink:href="#font_1_78" transform="matrix(24,0,0,-24,252.689,10.406982)"/>
<use data-text="p" xlink:href="#font_1_81" transform="matrix(24,0,0,-24,274.025,10.406982)"/>
<use data-text="l" xlink:href="#font_1_77" transform="matrix(24,0,0,-24,288.689,10.406982)"/>
<use data-text="e" xlink:href="#font_1_70" transform="matrix(24,0,0,-24,295.361,10.406982)"/>
<use data-text=" " xlink:href="#font_1_1" transform="matrix(24,0,0,-24,308.705,10.406982)"/>
<use data-text="b" xlink:href="#font_1_67" transform="matrix(24,0,0,-24,315.37699,10.406982)"/>
<use data-text="o" xlink:href="#font_1_80" transform="matrix(24,0,0,-24,330.041,10.406982)"/>
<use data-text="a" xlink:href="#font_1_66" transform="matrix(24,0,0,-24,344.705,10.406982)"/>
<use data-text="t" xlink:href="#font_1_85" transform="matrix(24,0,0,-24,358.04899,10.406982)"/>
<use data-text="D" xlink:href="#font_2_37" transform="matrix(12,0,0,-12,56.69301,46.945314)"/>
<use data-text="e" xlink:href="#font_2_70" transform="matrix(12,0,0,-12,65.35701,46.945314)"/>
<use data-text="s" xlink:href="#font_2_84" transform="matrix(12,0,0,-12,70.68501,46.945314)"/>
<use data-text="i" xlink:href="#font_2_74" transform="matrix(12,0,0,-12,75.35301,46.945314)"/>
<use data-text="g" xlink:href="#font_2_72" transform="matrix(12,0,0,-12,78.68901,46.945314)"/>
<use data-text="n" xlink:href="#font_2_79" transform="matrix(12,0,0,-12,84.68901,46.945314)"/>
<use data-text=":" xlink:href="#font_2_27" transform="matrix(12,0,0,-12,90.68901,46.945314)"/>
<use data-text=" " xlink:href="#font_2_1" transform="matrix(12,0,0,-12,94.02501,46.945314)"/>
<use data-text="T" xlink:href="#font_2_53" transform="matrix(12,0,0,-12,97.02501,46.945314)"/>
<use data-text="r" xlink:href="#font_2_83" transform="matrix(12,0,0,-12,104.35701,46.945314)"/>
<use data-text="a" xlink:href="#font_2_66" transform="matrix(12,0,0,-12,108.35301,46.945314)"/>
<use data-text="d" xlink:href="#font_2_69" transform="matrix(12,0,0,-12,113.681018,46.945314)"/>
<use data-text="i" xlink:href="#font_2_74" transform="matrix(12,0,0,-12,119.681018,46.945314)"/>
<use data-text="t" xlink:href="#font_2_85" transform="matrix(12,0,0,-12,123.01701,46.945314)"/>
<use data-text="i" xlink:href="#font_2_74" transform="matrix(12,0,0,-12,126.35301,46.945314)"/>
<use data-text="o" xlink:href="#font_2_80" transform="matrix(12,0,0,-12,129.68901,46.945314)"/>
<use data-text="n" xlink:href="#font_2_79" transform="matrix(12,0,0,-12,135.68901,46.945314)"/>
<use data-text="a" xlink:href="#font_2_66" transform="matrix(12,0,0,-12,141.68901,46.945314)"/>
<use data-text="l" xlink:href="#font_2_77" transform="matrix(12,0,0,-12,147.01702,46.945314)"/>
<use data-text="D" xlink:href="#font_2_37" transform="matrix(12,0,0,-12,326.885,46.945314)"/>
<use data-text="i" xlink:href="#font_2_74" transform="matrix(12,0,0,-12,335.549,46.945314)"/>
<use data-text="a" xlink:href="#font_2_66" transform="matrix(12,0,0,-12,338.885,46.945314)"/>
<use data-text="g" xlink:href="#font_2_72" transform="matrix(12,0,0,-12,344.213,46.945314)"/>
<use data-text="r" xlink:href="#font_2_83" transform="matrix(12,0,0,-12,350.213,46.945314)"/>
<use data-text="a" xlink:href="#font_2_66" transform="matrix(12,0,0,-12,354.209,46.945314)"/>
<use data-text="m" xlink:href="#font_2_78" transform="matrix(12,0,0,-12,359.53703,46.945314)"/>
<use data-text="s" xlink:href="#font_2_84" transform="matrix(12,0,0,-12,368.87303,46.945314)"/>
<use data-text=":" xlink:href="#font_2_27" transform="matrix(12,0,0,-12,373.54103,46.945314)"/>
<use data-text=" " xlink:href="#font_2_1" transform="matrix(12,0,0,-12,376.877,46.945314)"/>
<use data-text="X" xlink:href="#font_2_57" transform="matrix(12,0,0,-12,379.877,46.945314)"/>
<use data-text="a" xlink:href="#font_2_66" transform="matrix(12,0,0,-12,388.54103,46.945314)"/>
<use data-text="v" xlink:href="#font_2_87" transform="matrix(12,0,0,-12,393.86903,46.945314)"/>
<use data-text="i" xlink:href="#font_2_74" transform="matrix(12,0,0,-12,399.86903,46.945314)"/>
<use data-text="e" xlink:href="#font_2_70" transform="matrix(12,0,0,-12,403.20503,46.945314)"/>
<use data-text="r" xlink:href="#font_2_83" transform="matrix(12,0,0,-12,408.53303,46.945314)"/>
<use data-text=" " xlink:href="#font_2_1" transform="matrix(12,0,0,-12,412.52903,46.945314)"/>
<use data-text="F" xlink:href="#font_2_39" transform="matrix(12,0,0,-12,415.52903,46.945314)"/>
<use data-text="o" xlink:href="#font_2_80" transform="matrix(12,0,0,-12,422.20103,46.945314)"/>
<use data-text="u" xlink:href="#font_2_86" transform="matrix(12,0,0,-12,428.20103,46.945314)"/>
<use data-text="c" xlink:href="#font_2_68" transform="matrix(12,0,0,-12,434.20103,46.945314)"/>
<use data-text="h" xlink:href="#font_2_73" transform="matrix(12,0,0,-12,439.52903,46.945314)"/>
<use data-text="e" xlink:href="#font_2_70" transform="matrix(12,0,0,-12,445.52903,46.945314)"/>
<use data-text="t" xlink:href="#font_2_85" transform="matrix(12,0,0,-12,450.85704,46.945314)"/>
<use data-text=" " xlink:href="#font_2_1" transform="matrix(12,0,0,-12,454.19303,46.945314)"/>
<use data-text="-" xlink:href="#font_2_14" transform="matrix(12,0,0,-12,457.19303,46.945314)"/>
<use data-text=" " xlink:href="#font_2_1" transform="matrix(12,0,0,-12,461.18904,46.945314)"/>
<use data-text="C" xlink:href="#font_2_36" transform="matrix(12,0,0,-12,464.18904,46.945314)"/>
<use data-text="o" xlink:href="#font_2_80" transform="matrix(12,0,0,-12,472.19303,46.945314)"/>
<use data-text="p" xlink:href="#font_2_81" transform="matrix(12,0,0,-12,478.19303,46.945314)"/>
<use data-text="y" xlink:href="#font_2_90" transform="matrix(12,0,0,-12,484.19303,46.945314)"/>
<use data-text="r" xlink:href="#font_2_83" transform="matrix(12,0,0,-12,490.19303,46.945314)"/>
<use data-text="i" xlink:href="#font_2_74" transform="matrix(12,0,0,-12,494.18904,46.945314)"/>
<use data-text="g" xlink:href="#font_2_72" transform="matrix(12,0,0,-12,497.52503,46.945314)"/>
<use data-text="h" xlink:href="#font_2_73" transform="matrix(12,0,0,-12,503.52503,46.945314)"/>
<use data-text="t" xlink:href="#font_2_85" transform="matrix(12,0,0,-12,509.52503,46.945314)"/>
<use data-text=" " xlink:href="#font_2_1" transform="matrix(12,0,0,-12,512.861,46.945314)"/>
<use data-text="2" xlink:href="#font_2_19" transform="matrix(12,0,0,-12,515.861,46.945314)"/>
<use data-text="0" xlink:href="#font_2_17" transform="matrix(12,0,0,-12,521.861,46.945314)"/>
<use data-text="0" xlink:href="#font_2_17" transform="matrix(12,0,0,-12,527.861,46.945314)"/>
<use data-text="1" xlink:href="#font_2_18" transform="matrix(12,0,0,-12,533.861,46.945314)"/>
<use data-text="L" xlink:href="#font_2_45" transform="matrix(9,0,0,-9,70.86601,64.244937)"/>
<use data-text="e" xlink:href="#font_2_70" transform="matrix(9,0,0,-9,76.36501,64.244937)"/>
<use data-text="v" xlink:href="#font_2_87" transform="matrix(9,0,0,-9,80.361019,64.244937)"/>
<use data-text="e" xlink:href="#font_2_70" transform="matrix(9,0,0,-9,84.861019,64.244937)"/>
<use data-text="l" xlink:href="#font_2_77" transform="matrix(9,0,0,-9,88.85702,64.244937)"/>
<use data-text=" " xlink:href="#font_2_1" transform="matrix(9,0,0,-9,91.35902,64.244937)"/>
<use data-text=":" xlink:href="#font_2_27" transform="matrix(9,0,0,-9,93.60902,64.244937)"/>
<use data-text=" " xlink:href="#font_2_1" transform="matrix(9,0,0,-9,96.111019,64.244937)"/>
<use data-text="b" xlink:href="#font_2_67" transform="matrix(9,0,0,-9,98.361019,64.244937)"/>
<use data-text="e" xlink:href="#font_2_70" transform="matrix(9,0,0,-9,102.861019,64.244937)"/>
<use data-text="g" xlink:href="#font_2_72" transform="matrix(9,0,0,-9,106.85702,64.244937)"/>
<use data-text="i" xlink:href="#font_2_74" transform="matrix(9,0,0,-9,111.35702,64.244937)"/>
<use data-text="n" xlink:href="#font_2_79" transform="matrix(9,0,0,-9,113.85902,64.244937)"/>
<use data-text="n" xlink:href="#font_2_79" transform="matrix(9,0,0,-9,118.35902,64.244937)"/>
<use data-text="e" xlink:href="#font_2_70" transform="matrix(9,0,0,-9,122.85902,64.244937)"/>
<use data-text="r" xlink:href="#font_2_83" transform="matrix(9,0,0,-9,126.85502,64.244937)"/>
<use data-text="P" xlink:href="#font_2_49" transform="matrix(9,0,0,-9,70.86601,73.04065)"/>
<use data-text="a" xlink:href="#font_2_66" transform="matrix(9,0,0,-9,75.87001,73.04065)"/>
<use data-text="p" xlink:href="#font_2_81" transform="matrix(9,0,0,-9,79.86601,73.04065)"/>
<use data-text="e" xlink:href="#font_2_70" transform="matrix(9,0,0,-9,84.36601,73.04065)"/>
<use data-text="r" xlink:href="#font_2_83" transform="matrix(9,0,0,-9,88.362018,73.04065)"/>
<use data-text=" " xlink:href="#font_2_1" transform="matrix(9,0,0,-9,91.35902,73.04065)"/>
<use data-text=":" xlink:href="#font_2_27" transform="matrix(9,0,0,-9,93.60902,73.04065)"/>
<use data-text=" " xlink:href="#font_2_1" transform="matrix(9,0,0,-9,96.111019,73.04065)"/>
<use data-text="A" xlink:href="#font_2_34" transform="matrix(9,0,0,-9,98.361019,73.04065)"/>
<use data-text="4" xlink:href="#font_2_21" transform="matrix(9,0,0,-9,104.85902,73.04065)"/>
<path transform="matrix(.1,0,0,-.1,0,792)" d="M907.086 4869.92H2040.946V6468.66H907.086Z" fill="#e6b2e6"/>
<path transform="matrix(.1,0,0,-.1,0,792)" stroke-width="10" stroke-linecap="butt" stroke-miterlimit="10" stroke-linejoin="miter" fill="none" stroke="#000000" d="M907.086 6468.66H2040.95"/>
<path transform="matrix(.1,0,0,-.1,0,792)" stroke-width="10" stroke-linecap="butt" stroke-miterlimit="10" stroke-linejoin="miter" fill="none" stroke="#000000" d="M2040.95 6468.66V4869.92"/>
<path transform="matrix(.1,0,0,-.1,0,792)" stroke-width="10" stroke-linecap="butt" stroke-miterlimit="10" stroke-linejoin="miter" fill="none" stroke="#000000" d="M2040.95 4869.92H907.086"/>
<path transform="matrix(.1,0,0,-.1,0,792)" stroke-width="10" stroke-linecap="butt" stroke-miterlimit="10" stroke-linejoin="miter" fill="none" stroke="#000000" d="M907.086 4869.92V6468.66"/>
<path transform="matrix(.1,0,0,-.1,0,792)" stroke-width="10" stroke-linecap="butt" stroke-dasharray="50" stroke-miterlimit="10" stroke-linejoin="miter" fill="none" stroke="#000000" d="M907.086 5669.29H2040.95"/>
<path transform="matrix(.1,0,0,-.1,0,792)" stroke-width="10" stroke-linecap="butt" stroke-miterlimit="10" stroke-linejoin="miter" fill="none" stroke="#000000" d="M1057.22 5046.24 947.023 4943.48 965.387 5093.03"/>
<path transform="matrix(.1,0,0,-.1,0,792)" stroke-width="10" stroke-linecap="butt" stroke-miterlimit="10" stroke-linejoin="miter" fill="none" stroke="#000000" d="M947.027 4943.48C1061.57 5168.28 1121.28 5417 1121.28 5669.29 1121.28 5921.59 1061.57 6170.31 947.027 6395.11"/>
<use data-text="1" xlink:href="#font_2_18" transform="matrix(11,0,0,-11,74.8348,326.13)"/>
<use data-text="-" xlink:href="#font_2_14" transform="matrix(11,0,0,-11,80.3348,326.13)"/>
<use data-text="F" xlink:href="#font_2_39" transform="matrix(11,0,0,-11,92.97659,326.13)"/>
<use data-text="o" xlink:href="#font_2_80" transform="matrix(11,0,0,-11,99.09259,326.13)"/>
<use data-text="l" xlink:href="#font_2_77" transform="matrix(11,0,0,-11,104.59259,326.13)"/>
<use data-text="d" xlink:href="#font_2_69" transform="matrix(11,0,0,-11,107.65059,326.13)"/>
<use data-text=" " xlink:href="#font_2_1" transform="matrix(11,0,0,-11,113.15059,326.13)"/>
<use data-text="h" xlink:href="#font_2_73" transform="matrix(11,0,0,-11,115.90059,326.13)"/>
<use data-text="o" xlink:href="#font_2_80" transform="matrix(11,0,0,-11,121.40059,326.13)"/>
<use data-text="r" xlink:href="#font_2_83" transform="matrix(11,0,0,-11,126.90059,326.13)"/>
<use data-text="i" xlink:href="#font_2_74" transform="matrix(11,0,0,-11,130.56359,326.13)"/>
<use data-text="z" xlink:href="#font_2_91" transform="matrix(11,0,0,-11,133.62158,326.13)"/>
<use data-text="o" xlink:href="#font_2_80" transform="matrix(11,0,0,-11,138.50559,326.13)"/>
<use data-text="n" xlink:href="#font_2_79" transform="matrix(11,0,0,-11,144.00559,326.13)"/>
<use data-text="t" xlink:href="#font_2_85" transform="matrix(11,0,0,-11,149.50559,326.13)"/>
<use data-text="a" xlink:href="#font_2_66" transform="matrix(11,0,0,-11,152.56359,326.13)"/>
<use data-text="l" xlink:href="#font_2_77" transform="matrix(11,0,0,-11,157.44759,326.13)"/>
<use data-text="l" xlink:href="#font_2_77" transform="matrix(11,0,0,-11,160.50559,326.13)"/>
<use data-text="y" xlink:href="#font_2_90" transform="matrix(11,0,0,-11,163.56359,326.13)"/>
<use data-text=" " xlink:href="#font_2_1" transform="matrix(11,0,0,-11,169.06359,326.13)"/>
<use data-text="i" xlink:href="#font_2_74" transform="matrix(11,0,0,-11,171.81359,326.13)"/>
<use data-text="n" xlink:href="#font_2_79" transform="matrix(11,0,0,-11,174.87158,326.13)"/>
<use data-text=" " xlink:href="#font_2_1" transform="matrix(11,0,0,-11,180.37158,326.13)"/>
<use data-text="h" xlink:href="#font_2_73" transform="matrix(11,0,0,-11,183.12158,326.13)"/>
<use data-text="a" xlink:href="#font_2_66" transform="matrix(11,0,0,-11,188.62158,326.13)"/>
<use data-text="l" xlink:href="#font_2_77" transform="matrix(11,0,0,-11,193.50559,326.13)"/>
<use data-text="f" xlink:href="#font_2_71" transform="matrix(11,0,0,-11,196.56359,326.13)"/>
<path transform="matrix(.1,0,0,-.1,0,792)" d="M3826.77 5326.3 5017.32 5269.61V6068.98H3883.46" fill="#e6b2e6"/>
<path transform="matrix(.1,0,0,-.1,0,792)" d="M3883.46 5269.61H5017.32V6068.981H3883.46Z" fill="#99d999"/>
<path transform="matrix(.1,0,0,-.1,0,792)" stroke-width="10" stroke-linecap="butt" stroke-miterlimit="10" stroke-linejoin="miter" fill="none" stroke="#000000" d="M3883.46 5269.61H5017.32"/>
<path transform="matrix(.1,0,0,-.1,0,792)" stroke-width="10" stroke-linecap="butt" stroke-miterlimit="10" stroke-linejoin="miter" fill="none" stroke="#000000" d="M5017.32 5269.61V6068.98"/>
<path transform="matrix(.1,0,0,-.1,0,792)" stroke-width="10" stroke-linecap="butt" stroke-miterlimit="10" stroke-linejoin="miter" fill="none" stroke="#000000" d="M3883.46 5323.6 3826.77 5326.3"/>
<path transform="matrix(.1,0,0,-.1,0,792)" stroke-width="10" stroke-linecap="butt" stroke-miterlimit="10" stroke-linejoin="miter" fill="none" stroke="#000000" d="M3826.77 5326.3 3883.46 6068.98"/>
<path transform="matrix(.1,0,0,-.1,0,792)" stroke-width="10" stroke-linecap="butt" stroke-miterlimit="10" stroke-linejoin="miter" fill="none" stroke="#000000" d="M3883.46 6068.98H5017.32"/>
<path transform="matrix(.1,0,0,-.1,0,792)" stroke-width="10" stroke-linecap="butt" stroke-miterlimit="10" stroke-linejoin="miter" fill="none" stroke="#000000" d="M3883.46 6068.98V5269.61"/>
<path transform="matrix(.1,0,0,-.1,0,792)" stroke-width="10" stroke-linecap="butt" stroke-dasharray="50" stroke-miterlimit="10" stroke-linejoin="miter" fill="none" stroke="#000000" d="M4450.39 6068.98V5269.61"/>
<path transform="matrix(.1,0,0,-.1,0,792)" stroke-width="10" stroke-linecap="butt" stroke-miterlimit="10" stroke-linejoin="miter" fill="none" stroke="#000000" d="M4008.52 5163.13 3935.63 5241.28 4041.7 5228.26"/>
<path transform="matrix(.1,0,0,-.1,0,792)" d="M4965.15 5241.28 4859.09 5228.26 4892.27 5163.13" fill="#ffffff"/>
<path transform="matrix(.1,0,0,-.1,0,792)" stroke-width="10" stroke-linecap="butt" stroke-miterlimit="10" stroke-linejoin="miter" fill="none" stroke="#000000" d="M4965.15 5241.28 4859.09 5228.26 4892.27 5163.13Z"/>
<path transform="matrix(.1,0,0,-.1,0,792)" stroke-width="10" stroke-linecap="butt" stroke-miterlimit="10" stroke-linejoin="miter" fill="none" stroke="#000000" d="M3935.63 5241.28C4095.06 5160.05 4271.46 5117.7 4450.39 5117.7 4593.3 5117.7 4734.92 5144.71 4867.79 5197.32"/>
<use data-text="2" xlink:href="#font_2_19" transform="matrix(11,0,0,-11,372.472,326.13)"/>
<use data-text="-" xlink:href="#font_2_14" transform="matrix(11,0,0,-11,377.972,326.13)"/>
<use data-text="F" xlink:href="#font_2_39" transform="matrix(11,0,0,-11,390.61378,326.13)"/>
<use data-text="o" xlink:href="#font_2_80" transform="matrix(11,0,0,-11,396.72978,326.13)"/>
<use data-text="l" xlink:href="#font_2_77" transform="matrix(11,0,0,-11,402.22978,326.13)"/>
<use data-text="d" xlink:href="#font_2_69" transform="matrix(11,0,0,-11,405.28779,326.13)"/>
<use data-text=" " xlink:href="#font_2_1" transform="matrix(11,0,0,-11,410.78779,326.13)"/>
<use data-text="a" xlink:href="#font_2_66" transform="matrix(11,0,0,-11,413.53779,326.13)"/>
<use data-text="n" xlink:href="#font_2_79" transform="matrix(11,0,0,-11,418.42179,326.13)"/>
<use data-text="d" xlink:href="#font_2_69" transform="matrix(11,0,0,-11,423.92179,326.13)"/>
<use data-text=" " xlink:href="#font_2_1" transform="matrix(11,0,0,-11,429.42179,326.13)"/>
<use data-text="u" xlink:href="#font_2_86" transform="matrix(11,0,0,-11,432.17179,326.13)"/>
<use data-text="n" xlink:href="#font_2_79" transform="matrix(11,0,0,-11,437.67179,326.13)"/>
<use data-text="f" xlink:href="#font_2_71" transform="matrix(11,0,0,-11,443.17179,326.13)"/>
<use data-text="o" xlink:href="#font_2_80" transform="matrix(11,0,0,-11,446.83479,326.13)"/>
<use data-text="l" xlink:href="#font_2_77" transform="matrix(11,0,0,-11,452.33479,326.13)"/>
<use data-text="d" xlink:href="#font_2_69" transform="matrix(11,0,0,-11,455.3928,326.13)"/>
<use data-text=" " xlink:href="#font_2_1" transform="matrix(11,0,0,-11,460.8928,326.13)"/>
<use data-text="i" xlink:href="#font_2_74" transform="matrix(11,0,0,-11,463.6428,326.13)"/>
<use data-text="n" xlink:href="#font_2_79" transform="matrix(11,0,0,-11,466.7008,326.13)"/>
<use data-text=" " xlink:href="#font_2_1" transform="matrix(11,0,0,-11,472.2008,326.13)"/>
<use data-text="h" xlink:href="#font_2_73" transform="matrix(11,0,0,-11,474.9508,326.13)"/>
<use data-text="a" xlink:href="#font_2_66" transform="matrix(11,0,0,-11,480.4508,326.13)"/>
<use data-text="l" xlink:href="#font_2_77" transform="matrix(11,0,0,-11,485.3348,326.13)"/>
<use data-text="f" xlink:href="#font_2_71" transform="matrix(11,0,0,-11,488.39283,326.13)"/>
<use data-text=" " xlink:href="#font_2_1" transform="matrix(11,0,0,-11,492.05583,326.13)"/>
<use data-text="a" xlink:href="#font_2_66" transform="matrix(11,0,0,-11,494.80583,326.13)"/>
<use data-text="g" xlink:href="#font_2_72" transform="matrix(11,0,0,-11,499.68983,326.13)"/>
<use data-text="a" xlink:href="#font_2_66" transform="matrix(11,0,0,-11,505.18983,326.13)"/>
<use data-text="i" xlink:href="#font_2_74" transform="matrix(11,0,0,-11,510.07383,326.13)"/>
<use data-text="n" xlink:href="#font_2_79" transform="matrix(11,0,0,-11,513.13186,326.13)"/>
<path transform="matrix(.1,0,0,-.1,0,792)" d="M2352.76 2800.63 3543.31 2743.94V3543.31H2409.45" fill="#e6b2e6"/>
<path transform="matrix(.1,0,0,-.1,0,792)" d="M2409.45 2743.94H3543.31V3543.311H2409.45Z" fill="#99d999"/>
<path transform="matrix(.1,0,0,-.1,0,792)" stroke-width="10" stroke-linecap="butt" stroke-miterlimit="10" stroke-linejoin="miter" fill="none" stroke="#000000" d="M2409.45 2743.94H3543.31"/>
<path transform="matrix(.1,0,0,-.1,0,792)" stroke-width="10" stroke-linecap="butt" stroke-miterlimit="10" stroke-linejoin="miter" fill="none" stroke="#000000" d="M3543.31 2743.94V3543.31"/>
<path transform="matrix(.1,0,0,-.1,0,792)" stroke-width="10" stroke-linecap="butt" stroke-miterlimit="10" stroke-linejoin="miter" fill="none" stroke="#000000" d="M2409.45 2797.93 2352.76 2800.63"/>
<path transform="matrix(.1,0,0,-.1,0,792)" stroke-width="10" stroke-linecap="butt" stroke-miterlimit="10" stroke-linejoin="miter" fill="none" stroke="#000000" d="M2352.76 2800.63 2409.45 3543.31"/>
<path transform="matrix(.1,0,0,-.1,0,792)" stroke-width="10" stroke-linecap="butt" stroke-miterlimit="10" stroke-linejoin="miter" fill="none" stroke="#000000" d="M2409.45 3543.31H2976.38"/>
<path transform="matrix(.1,0,0,-.1,0,792)" stroke-width="10" stroke-linecap="butt" stroke-miterlimit="10" stroke-linejoin="miter" fill="none" stroke="#000000" d="M2409.45 3543.31V2743.94"/>
<path transform="matrix(.1,0,0,-.1,0,792)" stroke-linecap="butt" stroke-miterlimit="10" stroke-linejoin="miter" fill="none" stroke="#000000" d="M2976.38 3503.34V2783.91"/>
<path transform="matrix(.1,0,0,-.1,0,792)" stroke-width="10" stroke-linecap="butt" stroke-dasharray="50" stroke-miterlimit="10" stroke-linejoin="miter" fill="none" stroke="#000000" d="M2409.45 2976.38 2976.38 3543.31"/>
<path transform="matrix(.1,0,0,-.1,0,792)" stroke-width="10" stroke-linecap="butt" stroke-dasharray="50" stroke-miterlimit="10" stroke-linejoin="miter" fill="none" stroke="#000000" d="M3543.31 2976.38 2976.38 3543.31"/>
<path transform="matrix(.1,0,0,-.1,0,792)" stroke-width="10" stroke-linecap="butt" stroke-miterlimit="10" stroke-linejoin="miter" fill="none" stroke="#000000" d="M2976.38 3543.31H3543.31"/>
<path transform="matrix(.1,0,0,-.1,0,792)" stroke-width="10" stroke-linecap="butt" stroke-miterlimit="10" stroke-linejoin="miter" fill="none" stroke="#000000" d="M2876.59 3034.82 2936.13 2988.3 2860.61 2985.66"/>
<path transform="matrix(.1,0,0,-.1,0,792)" stroke-width="10" stroke-linecap="butt" stroke-miterlimit="10" stroke-linejoin="miter" fill="none" stroke="#000000" d="M2421.37 3503.06C2500.68 3258.98 2692.05 3067.61 2936.13 2988.3"/>
<path transform="matrix(.1,0,0,-.1,0,792)" stroke-width="10" stroke-linecap="butt" stroke-miterlimit="10" stroke-linejoin="miter" fill="none" stroke="#000000" d="M3092.14 2985.66 3016.63 2988.3 3076.17 3034.82"/>
<path transform="matrix(.1,0,0,-.1,0,792)" stroke-width="10" stroke-linecap="butt" stroke-miterlimit="10" stroke-linejoin="miter" fill="none" stroke="#000000" d="M3016.63 2988.3C3260.71 3067.61 3452.08 3258.98 3531.39 3503.06"/>
<use data-text="3" xlink:href="#font_2_20" transform="matrix(11,0,0,-11,225.071,538.729)"/>
<use data-text="-" xlink:href="#font_2_14" transform="matrix(11,0,0,-11,230.571,538.729)"/>
<use data-text="F" xlink:href="#font_2_39" transform="matrix(11,0,0,-11,243.2128,538.729)"/>
<use data-text="o" xlink:href="#font_2_80" transform="matrix(11,0,0,-11,249.3288,538.729)"/>
<use data-text="l" xlink:href="#font_2_77" transform="matrix(11,0,0,-11,254.8288,538.729)"/>
<use data-text="d" xlink:href="#font_2_69" transform="matrix(11,0,0,-11,257.8868,538.729)"/>
<use data-text=" " xlink:href="#font_2_1" transform="matrix(11,0,0,-11,263.3868,538.729)"/>
<use data-text="u" xlink:href="#font_2_86" transform="matrix(11,0,0,-11,266.1368,538.729)"/>
<use data-text="p" xlink:href="#font_2_81" transform="matrix(11,0,0,-11,271.6368,538.729)"/>
<use data-text="p" xlink:href="#font_2_81" transform="matrix(11,0,0,-11,277.1368,538.729)"/>
<use data-text="e" xlink:href="#font_2_70" transform="matrix(11,0,0,-11,282.6368,538.729)"/>
<use data-text="r" xlink:href="#font_2_83" transform="matrix(11,0,0,-11,287.5208,538.729)"/>
<use data-text=" " xlink:href="#font_2_1" transform="matrix(11,0,0,-11,291.1838,538.729)"/>
<use data-text="c" xlink:href="#font_2_68" transform="matrix(11,0,0,-11,293.9338,538.729)"/>
<use data-text="o" xlink:href="#font_2_80" transform="matrix(11,0,0,-11,298.8178,538.729)"/>
<use data-text="r" xlink:href="#font_2_83" transform="matrix(11,0,0,-11,304.3178,538.729)"/>
<use data-text="n" xlink:href="#font_2_79" transform="matrix(11,0,0,-11,307.9808,538.729)"/>
<use data-text="e" xlink:href="#font_2_70" transform="matrix(11,0,0,-11,313.4808,538.729)"/>
<use data-text="r" xlink:href="#font_2_83" transform="matrix(11,0,0,-11,318.3648,538.729)"/>
<use data-text="s" xlink:href="#font_2_84" transform="matrix(11,0,0,-11,322.0278,538.729)"/>
<use data-text=" " xlink:href="#font_2_1" transform="matrix(11,0,0,-11,326.3068,538.729)"/>
<use data-text="a" xlink:href="#font_2_66" transform="matrix(11,0,0,-11,329.0568,538.729)"/>
<use data-text="l" xlink:href="#font_2_77" transform="matrix(11,0,0,-11,333.9408,538.729)"/>
<use data-text="o" xlink:href="#font_2_80" transform="matrix(11,0,0,-11,336.9988,538.729)"/>
<use data-text="n" xlink:href="#font_2_79" transform="matrix(11,0,0,-11,342.4988,538.729)"/>
<use data-text="g" xlink:href="#font_2_72" transform="matrix(11,0,0,-11,347.9988,538.729)"/>
<use data-text=" " xlink:href="#font_2_1" transform="matrix(11,0,0,-11,353.4988,538.729)"/>
<use data-text="m" xlink:href="#font_2_78" transform="matrix(11,0,0,-11,356.2488,538.729)"/>
<use data-text="i" xlink:href="#font_2_74" transform="matrix(11,0,0,-11,364.80683,538.729)"/>
<use data-text="d" xlink:href="#font_2_69" transform="matrix(11,0,0,-11,367.86485,538.729)"/>
<use data-text="d" xlink:href="#font_2_69" transform="matrix(11,0,0,-11,373.36485,538.729)"/>
<use data-text="l" xlink:href="#font_2_77" transform="matrix(11,0,0,-11,378.86485,538.729)"/>
<use data-text="e" xlink:href="#font_2_70" transform="matrix(11,0,0,-11,381.92286,538.729)"/>
<use data-text=" " xlink:href="#font_2_1" transform="matrix(11,0,0,-11,386.80686,538.729)"/>
<use data-text="l" xlink:href="#font_2_77" transform="matrix(11,0,0,-11,389.55686,538.729)"/>
<use data-text="i" xlink:href="#font_2_74" transform="matrix(11,0,0,-11,392.61488,538.729)"/>
<use data-text="n" xlink:href="#font_2_79" transform="matrix(11,0,0,-11,395.67289,538.729)"/>
<use data-text="e" xlink:href="#font_2_70" transform="matrix(11,0,0,-11,401.17289,538.729)"/>
<path transform="matrix(.1,0,0,-.1,0,792)" stroke-width="30" stroke-linecap="butt" stroke-miterlimit="10" stroke-linejoin="miter" fill="none" stroke="#000000" d="M566.93 566.93H5385.83"/>
<use data-text="1" xlink:href="#font_2_18" transform="matrix(12,0,0,-12,295.275,751.9187)"/>
</svg>
